<?xml version="1.0" encoding="UTF-8"?>
<svg id="Layer_1" xmlns="http://www.w3.org/2000/svg" viewBox="0 0 22 22">
  <defs>
    <style>
      .cls-1 {
        fill: #007aff;
      }
    </style>
  </defs>
  <path class="cls-1" d="M18.33,20.62V6.88c0-.5-.18-.94-.54-1.29-.36-.36-.79-.54-1.29-.54h-.92v1.19c0,.18-.06.34-.18.46-.12.12-.27.18-.46.18h-5.13c-.21,0-.39-.11-.52-.34s-.14-.45-.03-.66l1.74-3.76c.11-.23.26-.41.47-.54.21-.13.45-.19.72-.19h2.11c.37,0,.67.14.92.41.24.27.37.6.37.96v.46h.92c1.01,0,1.87.36,2.59,1.08.72.72,1.08,1.58,1.08,2.59v13.75h-1.83ZM11.64,5.04h2.11v-1.83h-1.28l-.82,1.83ZM4.58,20.62c-.78,0-1.43-.26-1.96-.79-.53-.53-.79-1.18-.79-1.96v-2.29c0-.5.17-.97.5-1.41.34-.44.78-.7,1.33-.79v-1.93c0-.5.18-.94.54-1.29.36-.36.79-.54,1.29-.54h7.33c.5,0,.94.18,1.29.54.36.36.54.79.54,1.29v1.93c.55.09.99.34,1.33.76.34.41.5.89.5,1.44v2.29c0,.78-.26,1.43-.79,1.96-.53.53-1.18.79-1.96.79H4.58ZM5.5,11.46v2.29c.28.23.5.5.66.81.17.31.25.65.25,1.02v.46h5.5v-.46c0-.37.08-.71.25-1.02.17-.31.39-.58.66-.81v-2.29h-7.33ZM4.58,18.79h9.17c.27,0,.5-.1.66-.29.17-.19.25-.4.25-.63v-2.29c0-.14-.04-.25-.13-.33-.08-.08-.19-.13-.33-.13s-.25.04-.33.13c-.08.08-.13.19-.13.33v2.29H4.58v-2.29c0-.14-.04-.25-.13-.33-.08-.08-.19-.13-.33-.13s-.25.04-.33.13c-.08.08-.13.19-.13.33v2.29c0,.23.08.44.25.63.17.19.39.29.66.29Z"/>
</svg>