<?xml version="1.0" encoding="UTF-8"?>
<svg id="Layer_1" xmlns="http://www.w3.org/2000/svg" viewBox="0 0 22 22">
  <defs>
    <style>
      .cls-1 {
        fill: #999;
      }
    </style>
  </defs>
  <path class="cls-1" d="M.34,18.48v-2.57c0-.52.13-1,.4-1.43.27-.44.62-.77,1.07-1,.95-.47,1.91-.83,2.89-1.07.98-.24,1.97-.36,2.98-.36s2,.12,2.98.36c.98.24,1.94.59,2.89,1.07.44.23.8.56,1.07,1,.27.44.4.91.4,1.43v2.57H.34ZM16.84,18.48v-2.75c0-.67-.19-1.32-.56-1.94-.37-.62-.91-1.15-1.59-1.59.78.09,1.51.25,2.2.47.69.22,1.33.49,1.93.81.55.31.97.65,1.26,1.02s.44.78.44,1.23v2.75h-3.67ZM7.67,11.15c-1.01,0-1.87-.36-2.59-1.08-.72-.72-1.08-1.58-1.08-2.59s.36-1.87,1.08-2.59,1.58-1.08,2.59-1.08,1.87.36,2.59,1.08c.72.72,1.08,1.58,1.08,2.59s-.36,1.87-1.08,2.59c-.72.72-1.58,1.08-2.59,1.08ZM16.84,7.48c0,1.01-.36,1.87-1.08,2.59-.72.72-1.58,1.08-2.59,1.08-.17,0-.38-.02-.64-.06-.26-.04-.47-.08-.64-.13.41-.49.73-1.03.95-1.63.22-.6.33-1.21.33-1.86s-.11-1.26-.33-1.86c-.22-.6-.54-1.14-.95-1.63.21-.08.43-.13.64-.15.21-.02.43-.03.64-.03,1.01,0,1.87.36,2.59,1.08.72.72,1.08,1.58,1.08,2.59ZM2.17,16.65h11v-.73c0-.17-.04-.32-.13-.46-.08-.14-.19-.24-.33-.32-.82-.41-1.66-.72-2.5-.93-.84-.21-1.69-.31-2.54-.31s-1.7.1-2.54.31c-.84.21-1.67.52-2.5.93-.14.08-.25.18-.33.32-.08.14-.13.29-.13.46v.73ZM7.67,9.32c.5,0,.94-.18,1.29-.54.36-.36.54-.79.54-1.29s-.18-.94-.54-1.29c-.36-.36-.79-.54-1.29-.54s-.94.18-1.29.54c-.36.36-.54.79-.54,1.29s.18.94.54,1.29c.36.36.79.54,1.29.54Z"/>
</svg>
