<?xml version="1.0" encoding="UTF-8"?>
<svg id="Layer_2" xmlns="http://www.w3.org/2000/svg" xmlns:xlink="http://www.w3.org/1999/xlink" viewBox="0 0 31 28.98">
  <defs>
    <style>
      .cls-1 {
        fill: #fff;
      }

      .cls-2 {
        fill: none;
      }

      .cls-3 {
        clip-path: url(#clippath);
      }
    </style>
    <clipPath id="clippath">
      <rect class="cls-2" y="0" width="31" height="29"/>
    </clipPath>
  </defs>
  <g class="cls-3">
    <g>
      <path class="cls-1" d="M0,13.43c.04-.24.09-.49.12-.73.15-1.28.53-2.51,1.05-3.7.49-1.11,1.11-2.16,1.88-3.12.68-.84,1.45-1.6,2.29-2.3,1.1-.91,2.32-1.66,3.65-2.23,1.16-.5,2.36-.89,3.63-1.07.74-.11,1.5-.14,2.25-.24.91-.12,1.81.03,2.71.11,1.37.13,2.68.49,3.93.99.81.33,1.58.77,2.36,1.16.08.04.16.09.25.15.33-.44.62-.87.95-1.27.1-.13.31-.28.44-.26.13.02.28.22.33.37.39,1.26.78,2.52,1.14,3.8.13.49-.05.89-.73.93-1.14.07-2.28.19-3.42.28-.28.02-.56.05-.84.05-.4,0-.54-.21-.32-.54.27-.41.57-.8.86-1.2.04-.05.07-.11.1-.17-1.31-.83-2.74-1.39-4.28-1.73-1.25-.27-2.51-.36-3.78-.27-1.48.11-2.92.44-4.29,1.01-1.76.73-3.27,1.78-4.54,3.12-.95,1-1.69,2.13-2.24,3.37-.39.9-.68,1.82-.83,2.78-.16.98-.19,1.96-.09,2.95.11,1.12.38,2.2.79,3.25.47,1.19,1.11,2.3,1.99,3.28.42.47.85.93,1.32,1.35.76.69,1.62,1.25,2.55,1.73,1.04.54,2.14.94,3.29,1.21.35.08.72.14,1.05.27.49.19.75.76.64,1.28-.11.5-.52.92-1.02.92-.5,0-1.01-.08-1.5-.19-1.31-.29-2.54-.76-3.71-1.37-1.01-.53-1.93-1.16-2.8-1.88-1.1-.91-2.04-1.95-2.83-3.11-.82-1.2-1.43-2.5-1.81-3.88-.18-.66-.29-1.34-.43-2.02-.05-.23-.08-.47-.12-.7v-2.39h0Z"/>
      <path class="cls-1" d="M31,15.25c-.17.39-.42.7-.89.81-.69.17-1.52-.2-1.59-.93-.04-.43-.06-.88,0-1.31.07-.49.57-.89,1.02-.91.75-.03,1.17.21,1.4.8,0,.02.04.04.06.06v1.48h0Z"/>
      <path class="cls-1" d="M13.68,10.73c0-1.53,0-3.06,0-4.58,0-.48.38-.93.85-1.03.43-.08.97.18,1.15.58.05.11.06.24.06.35,0,2.68,0,5.35,0,8.03,0,.18.03.29.22.38,1.17.56,2.34,1.13,3.51,1.7,1.2.59,2.41,1.16,3.61,1.76.37.18.74.37,1.06.61.33.25.35.8.11,1.16-.25.38-.73.58-1.15.41-.69-.28-1.35-.61-2.02-.93-1.46-.7-2.91-1.4-4.36-2.11-.94-.46-1.87-.93-2.82-1.38-.19-.09-.23-.19-.23-.36,0-1.53,0-3.06,0-4.58h0Z"/>
      <path class="cls-1" d="M27.55,19.25c.17-.49.2-1.17.8-1.6.47-.34,1.04-.32,1.54.02.32.21.62.73.43,1.3-.1.29-.2.58-.31.87-.18.44-.86.84-1.28.76-.78-.14-1.19-.56-1.19-1.35h0Z"/>
      <path class="cls-1" d="M21.37,26.23c-.03-.52.26-.86.71-1.12.2-.12.41-.23.61-.34.67-.37,1.42-.14,1.77.4.38.59.16,1.34-.47,1.7-.26.15-.52.3-.8.43-.9.42-1.86-.23-1.82-1.06h0Z"/>
      <path class="cls-1" d="M28.15,22.71c.05.37-.19.66-.43.92-.24.27-.5.54-.81.73-.52.31-1.21.11-1.51-.23-.32-.36-.51-.87-.16-1.39.29-.43.56-.88,1.07-1.13.9-.44,1.88.24,1.83,1.1h0Z"/>
      <path class="cls-1" d="M30.34,10.39c0,.66-.46,1.08-1.07,1.21-.47.1-1.13-.1-1.37-.66-.21-.48-.48-.95-.4-1.51.06-.42.52-.89.96-.95.82-.11,1.33.26,1.55.91.11.33.22.67.33,1h0Z"/>
      <path class="cls-1" d="M18.07,29c-.6.04-1.14-.43-1.23-.95-.1-.62.14-1.15.84-1.37.39-.12.8-.2,1.21-.26.42-.06.97.28,1.19.69.25.48.11.96-.16,1.28-.33.38-.8.44-1.27.53-.19.04-.39.05-.59.08h0Z"/>
    </g>
  </g>
</svg>